<?xml version="1.0" encoding="utf-8"?>
<!-- Generator: Adobe Illustrator 18.1.1, SVG Export Plug-In . SVG Version: 6.00 Build 0)  -->
<svg version="1.1" id="Layer_1" xmlns="http://www.w3.org/2000/svg" xmlns:xlink="http://www.w3.org/1999/xlink" x="0px" y="0px"
	 viewBox="0 0 293 92.4" enable-background="new 0 0 293 92.4" xml:space="preserve">
<g>
	<g>
		<g>
			<g>
				<g>
					<path fill="#020000" d="M108.9,58.9h-2.8V43.7H126c2.6,0,4.8-2.1,4.8-4.8c0-2.6-2.1-4.8-4.8-4.8h-19.9v-2.8H126
						c4.2,0,7.6,3.4,7.6,7.6c0,4.2-3.4,7.6-7.6,7.6h-17.1V58.9z"/>
				</g>
				<path fill="#020000" d="M289.8,45.1c1.9-1.4,3.2-3.6,3.2-6.2c0-4.2-3.4-7.6-7.6-7.6h-19.8v2.8h19.8c2.6,0,4.7,2.1,4.7,4.8
					c0,2.6-2.1,4.8-4.7,4.8h-19.9v15.1h2.8V46.5h17.1c2.6,0,4.7,2.1,4.7,4.8v7.5h2.8v-7.5C293,48.8,291.7,46.5,289.8,45.1z"/>
				<g>
					<path fill="#020000" d="M205.7,58.9h-19.9V43.7h2.8V56h17.1c2.6,0,4.8-2.1,4.8-4.7V39c0-2.6-2.1-4.8-4.8-4.8h-19.9v-2.8h19.9
						c4.2,0,7.6,3.4,7.6,7.6v12.3C213.3,55.5,209.9,58.9,205.7,58.9z"/>
				</g>
				<path fill="#020000" d="M73.8,58.9c-4.2,0-7.6-3.4-7.6-7.6h2.8c0,2.6,2.1,4.7,4.8,4.7h12.3c2.6,0,4.8-2.1,4.8-4.8
					c0-2.6-2.1-4.8-4.8-4.8l-12.3,0c-4.2,0-7.6-3.4-7.6-7.6c0-4.2,3.4-7.6,7.6-7.6h12.3c4.2,0,7.6,3.4,7.6,7.6h-2.8
					c0-2.6-2.1-4.8-4.8-4.8l-12.3,0c-2.6,0-4.8,2.1-4.8,4.8c0,2.6,2.1,4.8,4.8,4.8l12.3,0c4.2,0,7.6,3.4,7.6,7.6
					c0,4.2-3.4,7.6-7.6,7.6H73.8z"/>
				<path fill="#020000" d="M170.6,31.4V39c0,2.6-2.1,4.8-4.8,4.8h-12.3c-2.6,0-4.8-2.1-4.8-4.8v-7.5H146V39c0,4.2,3.4,7.6,7.6,7.6
					h4.7v12.3h2.8V46.5h4.7c4.2,0,7.6-3.4,7.6-7.6v-7.5H170.6z"/>
				<g>
					<rect x="226.5" y="31.4" fill="#EC1C24" width="25.9" height="2.8"/>
					<polygon fill="#020000" points="252.4,58.9 226.5,58.9 226.5,43.7 252.4,43.7 252.4,46.5 229.3,46.5 229.3,56 252.4,56 					
						"/>
				</g>
			</g>
			<g>
				<rect x="18.1" y="61.6" fill="#EC1C24" width="10.7" height="13.8"/>
				<g>
					<g>
						<path fill="#020000" d="M23.3,74.4c1,0,2-0.1,2.6-0.3c1.2-0.3,1.4-1.1,1.4-2.3c0-1-1.1-1.1-1.9-1.5c-0.7-0.3-0.9-1-1-1.6
							c-0.1-1,0.3-1.8,0.9-2.5c0.7-0.7,1-1.1,1-1.7c0-0.5-0.4-1.1-1.2-1.3c-1-0.3-1.7-0.2-1.7-0.2s-0.7,0-1.7,0.2
							c-0.7,0.2-1.2,0.7-1.2,1.3c0,0.5,0.3,1,1,1.7c0.6,0.6,1,1.5,0.9,2.5c-0.1,0.6-0.4,1.2-1,1.6c-0.8,0.4-1.8,0.5-1.9,1.5
							c-0.1,1.1,0.2,1.9,1.4,2.3C21.3,74.3,22.3,74.4,23.3,74.4 M23.3,49c1,0,1.4,0.7,1.4,0.7s0.3-2.4,1-3.8
							c0.6-1.4,1.2-1.5,1.2-1.5s0.2,0.5-0.2,1.7c-1.1,3.1-1,4.6-1,4.6s0.7-2.1,2.4-6.1c1.2-2.8,2.9-4.6,3.9-6.1
							c0.3-0.4,1-1.3,1.7-3.1c0.3-0.8,1.2-0.8,1.2-0.8s-0.5-1.3-0.4-3c0.2-1.7,0.7-2.7,1.2-5.7c0.5-3-0.2-3.8-0.4-5.2
							c-0.2-1.4,0.5-1.7,0.5-3.5c0-1.7-1.5-6-1.5-6S33.7,9.3,33.1,8c-0.6-1.3-0.1-3.3-1.5-5.4c-0.6-0.9-0.8-1.9-0.6-2.3
							C31.2-0.1,31.5,0,31.5,0s0.6,1.8,1.7,4.1c0.3,0.6,0.8,1.3,1.2,1.8c0.6,0.8,0.8,1.1,0.8,1.3c0,0.4-0.2,1.3,0.4,3.5
							c0.6,2.2,1.5,5.4,2.8,8.2c0.7,1.6-0.8,6.1-0.7,9.9c0.1,3.8,0.3,3.5,0.2,5.6c-0.1,1.1-1.2,1.7-1.2,1.7s0.3,0.8,0,1.6
							c-0.3,0.8-1.6,1.7-2.5,3.7c-0.8,2-1.1,3.1-2,4.2c-3.1,4.1-4.3,5.7-4.3,5.7s6.1-5.5,8.6-7.1c0.6-0.4,1-0.2,1-0.2
							s-0.3-1.2,2-3.9c1.4-1.6,2.2-5.6,2.5-7.3c0.4-2,1.5-3,1.5-3s1.2-6.7,1.3-7.3c0.3-2.1,0.4-3.2-0.5-5.1
							c-0.6-1.2-2.5-5.7-2.5-5.8c0,0,0.3-0.1,0.5,0c0.2,0.1,2.1,4.2,2.5,5.1c0.6,1.7,1.2,1.5,1.5,2.8c0,0.2,0,1.2-0.1,1.8
							c-0.3,1.4-0.5,2-0.8,5.1c-0.4,3.8,0.2,5.1,0,6.5c-0.2,1.4-1,1.5-1.2,2.5c-0.2,1-1.2,3.8-2.3,7.1c-0.6,1.9-2.5,2.4-2.5,2.4
							s0,0.9-0.5,1.4c-0.5,0.5-1,0.2-2,1.5c-1.1,1.4-1.8,2.6-3.6,3.8c-2.8,1.9-4.4,2.9-4.4,2.9s2.1-0.6,3.5-0.9c2.9-0.5,4,0.6,4,0.6
							s1.1,0,2.5,0.6c1.4,0.6,1.6,1.3,3.3,2.4c0.9,0.6,1.7,0.9,2.1,1.6c0.6,1.1,0.8,2.4,1,3.4c0.7,3.5,1.5,7.1,1.5,7.1
							c-0.2,0-0.5-0.2-0.6-0.3c-0.3-0.6-0.3-2.4-1.4-5.3c-1.2-3.3-2.1-3.5-2.1-3.5s-1.4,0.1-3.5-1.4c-1.6-1.2-2.3-2-2.3-2
							s-0.8,0.4-2.4,0.2c-3.1-0.5-4.8,0.5-4.8,0.5s1.8-0.5,5.1,1.6c1.9,1.2,3.2,2.7,3,3.5c0.6,0,1.1,0.7,1.9,2.3
							c0.8,1.5,1.2,4.3,1.8,6.4c0.5,1.9,1.3,2.8,1.5,4.2c0.2,1.7-0.8,3-1.6,6.8c-0.5,2-0.7,3.2-2.4,6.2c-1.2,2.2-2.2,3.5-2.9,3.7
							c0,0-0.1-0.3,0-0.6c0.1-0.2,1-1.2,2.4-4.5c1.2-2.8,1.6-4,2.2-7.7c0.2-1.1,0-1.7-0.3-2c-0.3-0.3-0.7-0.8-0.7-1.6
							c0.1-2.4-1.3-6.4-2.5-9.6c-0.6-1.6-2.1-2-2.4-2.6c-0.9-1.6-2.6-2.1-3.1-2.3C29.9,61,29,61.3,29,61.3s3.9,2,3.9,8.9
							c0,6.9-5.6,10.7-9.6,10.7c-4,0-9.6-3.7-9.6-10.7c0-6.9,3.9-8.9,3.9-8.9s-0.9-0.2-2.4,0.2c-0.5,0.2-2.2,0.7-3.1,2.3
							c-0.3,0.5-1.8,1-2.4,2.6c-1.2,3.2-2.6,7.1-2.5,9.6c0,0.8-0.3,1.3-0.7,1.6c-0.3,0.3-0.5,1-0.4,2c0.7,3.7,1,4.9,2.2,7.7
							c1.5,3.3,2.4,4.3,2.4,4.5c0.1,0.3,0,0.6,0,0.6c-0.8-0.2-1.7-1.5-2.9-3.7c-1.7-3-1.9-4.2-2.4-6.2c-0.9-3.8-1.9-5.1-1.6-6.8
							c0.2-1.4,1.1-2.2,1.5-4.2c0.5-2.1,0.9-4.8,1.8-6.4c0.9-1.6,1.4-2.3,1.9-2.3c-0.2-0.9,1.1-2.3,3-3.5c3.3-2,5.1-1.6,5.1-1.6
							s-1.7-1-4.8-0.6C10.8,57.4,10,57,10,57s-0.7,0.9-2.3,2c-2.1,1.5-3.5,1.4-3.5,1.4S3.2,60.6,2,63.9c-1.1,2.9-1.1,4.8-1.4,5.3
							c-0.1,0.1-0.4,0.3-0.6,0.3c0,0,0.8-3.6,1.5-7.1c0.2-1,0.4-2.3,1-3.4c0.4-0.7,1.2-1,2.1-1.6c1.7-1.1,1.9-1.8,3.3-2.4
							c1.4-0.6,2.5-0.6,2.5-0.6s1.1-1.2,4-0.6c1.4,0.3,3.5,0.9,3.5,0.9s-1.6-1-4.4-2.9c-1.8-1.3-2.5-2.4-3.6-3.8c-1-1.3-1.5-1-2-1.5
							c-0.5-0.5-0.5-1.4-0.5-1.4s-1.9-0.5-2.5-2.4c-1.1-3.4-2.1-6.1-2.3-7.1c-0.2-1-0.9-1.1-1.1-2.5c-0.2-1.4,0.4-2.7,0-6.5
							c-0.3-3.1-0.6-3.7-0.8-5.1c-0.1-0.7-0.1-1.6-0.1-1.8c0.3-1.3,0.9-1.1,1.5-2.8c0.3-0.9,2.1-4.9,2.2-5c0.2-0.1,0.5,0,0.5,0
							c0,0.1-1.7,4.5-2.3,5.7c-0.9,1.9-0.8,3-0.5,5.1c0.1,0.6,1.3,7.3,1.3,7.3s1,1,1.5,3c0.4,1.7,1.2,5.7,2.5,7.3
							c2.3,2.7,2,3.9,2,3.9s0.4-0.2,1,0.2c2.4,1.6,8.6,7.1,8.6,7.1s-1.2-1.6-4.3-5.7c-0.8-1.1-1.2-2.2-2-4.2c-0.8-2-2.1-2.9-2.5-3.7
							c-0.3-0.8,0-1.6,0-1.6s-1.2-0.6-1.2-1.7c-0.1-2.1,0.1-1.8,0.2-5.6c0.1-3.8-1.4-8.3-0.7-9.9c1.2-2.8,2.2-6.1,2.8-8.2
							c0.6-2.2,0.4-3.1,0.4-3.5c0-0.2,0.2-0.5,0.8-1.3c0.4-0.5,0.9-1.2,1.2-1.8C14.4,1.9,15,0,15,0s0.3-0.1,0.5,0.2
							c0.2,0.5,0,1.4-0.6,2.3c-1.3,2.1-0.8,4.2-1.5,5.4c-0.6,1.3-1.2,3.4-1.2,3.4s-1.5,4.2-1.5,6c0,1.7,0.7,2,0.5,3.5
							c-0.2,1.4-0.8,2.2-0.4,5.2c0.5,3,1,3.9,1.2,5.7c0.2,1.7-0.4,3-0.4,3s0.9,0,1.2,0.8c0.7,1.8,1.4,2.7,1.7,3.1
							c1,1.4,2.8,3.2,3.9,6c1.7,4.1,2.4,6.1,2.4,6.1s0.1-1.5-1-4.6c-0.4-1.3-0.2-1.7-0.2-1.7s0.6,0.1,1.2,1.5c0.6,1.4,1,3.8,1,3.8
							S22.2,49,23.3,49"/>
					</g>
				</g>
			</g>
		</g>
	</g>
</g>
</svg>
